<?xml version="1.0" encoding="UTF-8"?>
<svg id="svg" version="1.1" width="512" height="512" viewBox="0 0 512 512" xmlns="http://www.w3.org/2000/svg" xmlns:xlink="http://www.w3.org/1999/xlink"><path d="M233.000 10.646 C 183.337 16.921,147.676 30.518,109.296 57.811 C 67.465 87.559,33.129 135.596,17.669 186.000 C 7.296 219.820,4.774 258.576,10.582 294.916 C 20.316 355.823,54.293 412.214,104.000 449.963 C 139.853 477.192,177.964 493.181,222.500 499.679 C 239.489 502.157,275.062 502.124,291.500 499.614 C 334.819 493.001,374.698 476.406,408.713 450.840 C 420.487 441.990,441.927 421.395,450.701 410.505 C 473.833 381.797,491.283 346.484,499.408 311.939 C 503.367 295.102,505.081 281.677,505.708 262.595 L 506.296 244.691 503.173 245.315 C 497.280 246.494,483.748 252.384,474.842 257.647 C 452.147 271.057,436.162 286.206,415.356 314.019 C 390.912 346.696,378.413 356.095,355.550 358.994 C 342.185 360.688,333.996 357.918,325.354 348.780 C 315.592 338.459,312.628 329.184,312.641 309.000 C 312.646 301.575,313.212 291.900,313.899 287.500 C 315.143 279.529,323.624 242.303,328.569 223.108 C 330.000 217.554,330.997 212.492,330.786 211.858 C 330.254 210.263,317.850 227.746,307.980 244.000 C 303.471 251.425,294.945 267.400,289.033 279.500 C 279.376 299.265,275.457 308.309,266.500 331.500 C 263.384 339.567,260.722 342.758,254.177 346.273 C 243.928 351.778,239.279 350.594,232.999 340.878 C 227.820 332.864,226.572 326.458,227.375 312.000 C 228.212 296.932,229.407 289.649,238.371 245.000 C 246.542 204.296,250.293 183.380,249.727 181.680 C 249.299 180.398,235.652 203.027,227.774 218.083 C 209.453 253.092,188.366 308.587,180.498 342.500 C 175.096 365.784,175.178 365.504,172.902 368.397 C 169.127 373.197,163.499 375.304,155.906 374.761 C 148.549 374.235,144.708 372.208,140.880 366.831 C 137.550 362.155,138.122 355.454,143.981 330.500 C 163.339 248.047,170.018 212.367,169.906 192.000 C 169.839 179.823,168.462 174.903,164.757 173.590 C 160.836 172.201,156.296 174.562,149.499 181.527 C 136.436 194.910,125.449 223.941,127.560 239.500 C 128.289 244.879,130.888 250.832,133.427 252.939 C 137.035 255.934,134.217 263.192,127.690 267.715 C 123.199 270.827,114.332 271.925,108.699 270.066 C 103.892 268.479,96.449 260.297,94.873 254.868 C 94.176 252.466,93.640 246.450,93.681 241.500 C 93.743 234.198,94.351 230.732,96.902 223.125 C 107.106 192.696,129.634 163.225,150.648 152.812 C 158.978 148.684,159.736 148.500,168.425 148.504 C 179.107 148.508,181.755 149.625,189.534 157.403 C 200.356 168.225,203.183 187.463,198.499 218.416 C 196.994 228.367,197.133 231.411,198.883 226.809 C 199.399 225.451,201.661 220.394,203.911 215.571 C 206.160 210.748,208.000 206.576,208.000 206.301 C 208.000 204.861,223.164 178.146,228.884 169.508 C 236.306 158.300,252.480 141.256,258.151 138.667 C 265.643 135.246,273.481 137.189,280.867 144.297 C 291.366 154.401,291.520 160.767,282.352 205.500 C 279.872 217.600,276.051 235.085,273.861 244.356 C 271.671 253.627,270.089 261.423,270.346 261.679 C 270.603 261.936,273.401 257.276,276.564 251.323 C 289.336 227.290,300.550 209.635,312.757 194.345 C 331.872 170.401,342.640 163.171,354.770 166.138 C 368.120 169.404,375.000 177.285,375.000 189.312 C 375.000 192.971,372.582 203.284,367.430 221.595 C 352.914 273.192,349.012 291.238,349.004 306.807 C 348.999 316.183,350.269 322.382,352.911 325.883 C 354.267 327.680,355.956 328.385,359.789 328.754 C 370.709 329.803,380.638 321.296,398.500 295.590 C 430.376 249.714,454.679 226.850,489.745 209.748 C 495.660 206.863,500.660 204.416,500.856 204.312 C 501.520 203.957,494.806 181.555,490.960 171.295 C 462.715 95.930,397.182 37.312,319.107 17.575 C 296.488 11.857,288.069 10.824,261.500 10.504 C 247.750 10.339,234.925 10.403,233.000 10.646 " stroke="none" fill="#eb1a20" fill-rule="evenodd"/><path d="M226.062 11.560 C 180.439 18.025,146.136 31.612,109.296 57.811 C 67.465 87.559,33.129 135.596,17.669 186.000 C 5.613 225.306,4.297 270.441,14.011 311.500 C 27.208 367.287,59.247 416.322,105.000 450.757 C 140.284 477.313,178.628 493.278,222.500 499.679 C 239.489 502.157,275.062 502.124,291.500 499.614 C 334.695 493.020,374.788 476.338,408.693 450.855 C 420.464 442.008,441.899 421.424,450.713 410.505 C 467.972 389.122,484.854 358.762,492.842 334.741 C 501.192 309.628,504.834 289.208,505.708 262.595 L 506.296 244.691 503.173 245.315 C 497.280 246.494,483.748 252.384,474.842 257.647 C 452.123 271.071,436.165 286.202,415.282 314.119 C 400.162 334.330,389.677 345.328,380.161 350.956 C 371.530 356.062,360.022 359.192,349.589 359.271 C 338.954 359.353,333.070 356.851,325.684 349.108 C 315.603 338.539,312.628 329.389,312.641 309.000 C 312.646 301.575,313.210 291.900,313.893 287.500 C 315.170 279.283,322.799 245.652,328.137 224.713 C 329.790 218.230,330.975 212.426,330.772 211.815 C 330.568 211.204,327.201 215.159,323.290 220.602 C 303.542 248.085,282.789 288.529,267.008 330.283 C 263.494 339.580,260.493 343.192,253.222 346.872 C 247.293 349.873,243.552 350.337,240.015 348.508 C 235.937 346.399,229.440 336.281,228.074 329.911 C 225.501 317.911,227.649 297.552,235.502 259.516 C 242.590 225.186,250.160 184.053,249.760 182.046 C 248.976 178.116,222.870 226.053,212.480 250.500 C 194.965 291.711,186.262 317.207,179.058 348.409 C 174.875 366.525,173.627 369.138,167.406 372.799 C 164.080 374.757,162.443 375.040,156.377 374.707 C 148.510 374.276,144.843 372.398,140.811 366.734 C 137.475 362.050,138.006 355.978,143.976 330.500 C 162.197 252.741,168.795 218.753,169.718 197.907 C 170.748 174.622,167.039 168.785,155.759 175.938 C 140.752 185.455,125.035 220.883,127.560 239.500 C 128.289 244.879,130.888 250.832,133.427 252.939 C 137.035 255.934,134.217 263.192,127.690 267.715 C 123.199 270.827,114.332 271.925,108.699 270.066 C 103.892 268.479,96.449 260.297,94.873 254.868 C 94.176 252.466,93.640 246.450,93.681 241.500 C 93.743 234.198,94.351 230.732,96.902 223.125 C 107.059 192.838,129.645 163.219,150.443 152.913 C 157.521 149.406,160.196 148.623,166.479 148.220 C 176.447 147.580,181.411 149.492,188.938 156.870 C 193.581 161.421,195.088 163.745,196.802 169.000 C 201.548 183.545,201.960 195.545,198.499 218.416 C 197.081 227.790,197.134 231.596,198.624 227.393 C 203.075 214.838,218.763 184.840,228.896 169.508 C 236.303 158.302,252.466 141.263,258.151 138.667 C 265.643 135.246,273.481 137.189,280.867 144.297 C 291.452 154.484,291.572 161.227,281.993 207.500 C 279.715 218.500,276.058 235.085,273.866 244.356 C 271.673 253.627,270.089 261.423,270.346 261.679 C 270.603 261.936,273.401 257.276,276.564 251.323 C 289.551 226.886,300.394 209.831,313.012 194.000 C 335.091 166.297,346.344 160.726,363.212 169.148 C 367.937 171.508,370.758 174.462,373.098 179.500 C 376.487 186.797,375.713 191.938,365.947 227.000 C 351.445 279.065,348.439 294.004,349.189 310.272 C 349.840 324.391,352.927 329.000,361.731 329.000 C 371.405 329.000,381.962 319.440,398.207 295.969 C 429.633 250.565,453.739 227.672,488.000 210.694 C 494.875 207.287,500.649 204.426,500.832 204.335 C 501.486 204.009,494.697 181.300,490.954 171.295 C 473.080 123.520,439.089 80.821,396.035 52.061 C 366.119 32.077,335.785 19.980,298.000 12.967 C 282.621 10.112,241.897 9.316,226.062 11.560 " stroke="none" fill="#eb1a1d" fill-rule="evenodd"/></svg>